<?xml version="1.0" encoding="utf-8" ?>
<svg xmlns="http://www.w3.org/2000/svg" xmlns:xlink="http://www.w3.org/1999/xlink" width="162" height="120">
	<defs>
		<clipPath id="clip_0">
			<rect x="-1055.056" y="-2851.3535" width="1434.816" height="4642.2275" clip-rule="evenodd"/>
		</clipPath>
	</defs>
	<g clip-path="url(#clip_0)">
		<path fill="#b25ce7" stroke="none" transform="matrix(0.9964 0 0 0.9964 5.30957 3.63843)" d="M0 4.44094C0 1.98425 1.98425 0 4.44094 0C6.89764 0 8.88189 1.98425 8.88189 4.44094C8.88189 6.89764 6.89764 8.88189 4.44094 8.88189C1.98425 8.88189 0 6.89764 0 4.44094ZM1.88976 4.44094C1.88976 5.85827 3.02362 6.99213 4.44094 6.99213C5.85827 6.99213 6.99213 5.85827 6.99213 4.44094C6.99213 3.02362 5.85827 1.88976 4.44094 1.88976C3.02362 1.88976 1.88976 3.02362 1.88976 4.44094Z" fill-rule="evenodd"/>
	</g>
	<defs>
		<clipPath id="clip_1">
			<rect x="-1055.056" y="-2851.3535" width="1434.816" height="4642.2275" clip-rule="evenodd"/>
		</clipPath>
	</defs>
	<g clip-path="url(#clip_1)">
		<path fill="#b25ce7" stroke="none" transform="matrix(0.9964 0 0 0.9964 15.9485 3.63843)" d="M0 4.44094C0 1.98425 1.98425 0 4.44094 0C6.89764 0 8.88189 1.98425 8.88189 4.44094C8.88189 6.89764 6.89764 8.88189 4.44094 8.88189C1.98425 8.88189 0 6.89764 0 4.44094ZM1.88976 4.44094C1.88976 5.85827 3.02362 6.99213 4.44094 6.99213C5.85827 6.99213 6.99213 5.85827 6.99213 4.44094C6.99213 3.02362 5.85827 1.88976 4.44094 1.88976C3.02362 1.88976 1.88976 3.02362 1.88976 4.44094Z" fill-rule="evenodd"/>
	</g>
	<defs>
		<clipPath id="clip_2">
			<rect x="-1055.056" y="-2851.3535" width="1434.816" height="4642.2275" clip-rule="evenodd"/>
		</clipPath>
	</defs>
	<g clip-path="url(#clip_2)">
		<path fill="#b25ce7" stroke="none" transform="matrix(0.9964 0 0 0.9964 26.5874 3.63843)" d="M0 4.44094C0 1.98425 1.98425 0 4.44094 0C6.89764 0 8.88189 1.98425 8.88189 4.44094C8.88189 6.89764 6.89764 8.88189 4.44094 8.88189C1.98425 8.88189 0 6.89764 0 4.44094ZM1.88976 4.44094C1.88976 5.85827 3.02362 6.99213 4.44094 6.99213C5.85827 6.99213 6.99213 5.85827 6.99213 4.44094C6.99213 3.02362 5.85827 1.88976 4.44094 1.88976C3.02362 1.88976 1.88976 3.02362 1.88976 4.44094Z" fill-rule="evenodd"/>
	</g>
	<defs>
		<clipPath id="clip_3">
			<rect x="-1055.056" y="-2851.3535" width="1434.816" height="4642.2275" clip-rule="evenodd"/>
		</clipPath>
	</defs>
	<g clip-path="url(#clip_3)">
		<path fill="#b25ce7" stroke="none" transform="matrix(0.9964 0 0 0.9964 0.131592 0.343262)" d="M160.63 55.0866L160.63 0L0 0L0 120L160.63 120L160.63 55.937C160.63 55.8425 160.724 55.6535 160.724 55.5591C160.724 55.4646 160.63 55.2756 160.63 55.0866ZM1.88976 16.063L158.74 16.063L158.74 1.88976L1.88976 1.88976L1.88976 16.063ZM158.74 118.11L1.88976 118.11L1.88976 17.9528L158.74 17.9528L158.74 118.11Z" fill-rule="evenodd"/>
	</g>
	<defs>
		<clipPath id="clip_4">
			<rect x="-1055.056" y="-2851.3535" width="1434.816" height="4642.2275" clip-rule="evenodd"/>
		</clipPath>
	</defs>
	<g clip-path="url(#clip_4)">
		<path fill="#b25ce7" stroke="none" transform="matrix(0.9964 0 0 0.9964 14.3481 34.613)" d="M8.40945 0.0944882L8.40945 5.95276C8.7874 5.95276 9.07087 6.04724 9.16535 6.23622C9.25984 6.4252 9.44882 6.61417 9.44882 6.89764C9.44882 7.1811 9.35433 7.37008 9.16535 7.46457C8.97638 7.65354 8.69291 7.65354 8.31496 7.65354L6.70866 7.65354L6.70866 7.1811C6.23622 7.37008 5.76378 7.55906 5.29134 7.65354C4.8189 7.74803 4.44095 7.84252 4.06299 7.84252C3.49606 7.84252 3.02362 7.74803 2.64567 7.46457C2.26772 7.27559 1.88976 6.89764 1.70079 6.51969C1.51181 6.23622 1.41732 5.85827 1.41732 5.38583L1.41732 1.70079L1.13386 1.70079C0.755906 1.70079 0.472441 1.6063 0.283465 1.41732C0.0944882 1.22835 0 1.03937 0 0.755906C0 0.472441 0.0944882 0.283465 0.283465 0.188976C0.472441 0 0.755906 0 1.13386 0L3.11811 0L3.11811 5.10236C3.11811 5.48032 3.2126 5.76378 3.40158 5.85827C3.59055 6.04724 3.87402 6.14173 4.15748 6.14173C4.53543 6.14173 4.91339 6.04724 5.29134 5.95276C5.66929 5.85827 6.14173 5.5748 6.80315 5.19685L6.80315 1.70079L6.14173 1.70079C5.76378 1.70079 5.48031 1.6063 5.29134 1.41732C5.10236 1.22835 5.00787 1.03937 5.00787 0.755906C5.00787 0.472441 5.10236 0.283465 5.29134 0.188976C5.48031 0 5.76378 0 6.14173 0L8.40945 0L8.40945 0.0944882Z"/>
	</g>
	<defs>
		<clipPath id="clip_5">
			<rect x="-1055.056" y="-2851.3535" width="1434.816" height="4642.2275" clip-rule="evenodd"/>
		</clipPath>
	</defs>
	<g clip-path="url(#clip_5)">
		<path fill="#b25ce7" stroke="none" transform="matrix(0.9964 0 0 0.9964 25.8342 34.5188)" d="M5.76378 2.17323C5.48032 1.98425 5.19685 1.88976 4.91339 1.79528C4.62992 1.70079 4.25197 1.70079 3.9685 1.70079C3.30709 1.70079 2.74016 1.79528 2.3622 1.98425C2.17323 2.07874 2.07874 2.17323 2.07874 2.26772C2.07874 2.3622 2.17323 2.55118 2.45669 2.64567C2.64567 2.74016 3.02362 2.83465 3.68504 2.92913C4.8189 3.11811 5.5748 3.2126 6.04724 3.40157C6.61417 3.59055 7.08661 3.87402 7.37008 4.34646C7.65354 4.8189 7.84252 5.19685 7.84252 5.66929C7.84252 6.23622 7.55906 6.80315 6.99213 7.1811C6.23622 7.74803 5.19685 8.0315 3.9685 8.0315C3.49606 8.0315 3.02362 8.0315 2.64567 7.93701C2.26772 7.84252 1.88976 7.74803 1.51181 7.55906C1.41732 7.65354 1.32283 7.65354 1.22835 7.74803C1.13386 7.84252 1.03937 7.84252 0.944882 7.84252C0.661417 7.84252 0.472441 7.74803 0.283465 7.55906C0.0944882 7.37008 0 7.08661 0 6.70866L0 6.14173C0 5.76378 0.0944882 5.48032 0.283465 5.29134C0.472441 5.10236 0.661417 5.00787 0.944882 5.00787C1.13386 5.00787 1.32283 5.10236 1.41732 5.19685C1.51181 5.29134 1.70079 5.48032 1.70079 5.76378C1.98425 5.95276 2.26772 6.14173 2.64567 6.23622C3.02362 6.33071 3.40157 6.4252 3.87402 6.4252C4.62992 6.4252 5.29134 6.33071 5.66929 6.04724C5.85827 5.95276 5.95276 5.76378 5.95276 5.66929C5.95276 5.48032 5.76378 5.29134 5.48032 5.10236C5.19685 4.91339 4.53543 4.8189 3.68504 4.72441C2.3622 4.53543 1.41732 4.34646 0.944882 3.87402C0.472441 3.49606 0.283465 2.92913 0.283465 2.3622C0.283465 1.79528 0.566929 1.22835 1.03937 0.850394C1.70079 0.283465 2.64567 0 3.77953 0C4.15748 0 4.53543 0 4.91339 0.0944882C5.29134 0.188976 5.66929 0.283465 5.95276 0.472441C6.04724 0.377953 6.14173 0.377953 6.23622 0.283465C6.33071 0.283465 6.4252 0.188976 6.51969 0.188976C6.70866 0.188976 6.99213 0.283465 7.08661 0.472441C7.27559 0.661417 7.27559 0.944882 7.27559 1.32283L7.27559 1.70079C7.27559 2.07874 7.27559 2.3622 7.1811 2.45669C6.99213 2.74016 6.80315 2.83465 6.4252 2.83465C6.23622 2.83465 6.04724 2.74016 5.85827 2.64567C5.66929 2.55118 5.85827 2.3622 5.76378 2.17323Z"/>
	</g>
	<defs>
		<clipPath id="clip_6">
			<rect x="-1055.056" y="-2851.3535" width="1434.816" height="4642.2275" clip-rule="evenodd"/>
		</clipPath>
	</defs>
	<g clip-path="url(#clip_6)">
		<path fill="#b25ce7" stroke="none" transform="matrix(0.9964 0 0 0.9964 35.6255 34.4246)" d="M1.98425 4.91339L8.7874 4.91339L8.7874 4.06299C8.7874 3.59055 8.69291 3.02362 8.50394 2.64567C8.31496 2.07874 7.93701 1.51181 7.55905 1.13386C7.27559 0.850394 6.80315 0.661417 6.23622 0.377953C5.66929 0.0944882 5.00787 0 4.34646 0C3.2126 0 2.17323 0.377953 1.32283 1.13386C0.472441 1.88976 0 2.83465 0 4.06299C0 5.19685 0.377953 6.14173 1.22835 6.89764C2.07874 7.65354 3.2126 8.0315 4.53543 8.0315C5.29134 8.0315 6.14173 7.93701 6.99213 7.74803C7.84252 7.55906 8.40945 7.37008 8.59842 7.1811Q8.88189 6.89764 8.88189 6.61417C8.88189 6.4252 8.88189 6.23622 8.69291 6.04724Q8.40945 5.76378 8.12598 5.76378C8.0315 5.76378 7.74803 5.85827 7.27559 5.95276C6.23622 6.23622 5.38583 6.33071 4.72441 6.33071C3.9685 6.33071 3.40157 6.23622 2.92913 5.95276C2.45669 5.66929 2.17323 5.38583 1.98425 4.91339ZM6.04724 2.07874C6.51969 2.3622 6.80315 2.74016 7.08661 3.2126L1.98425 3.2126C2.26772 2.64567 2.64567 2.3622 3.02362 2.07874C3.49606 1.79528 3.9685 1.70079 4.53543 1.70079C5.10236 1.70079 5.66929 1.79528 6.04724 2.07874Z" fill-rule="evenodd"/>
	</g>
	<defs>
		<clipPath id="clip_7">
			<rect x="-1055.056" y="-2851.3535" width="1434.816" height="4642.2275" clip-rule="evenodd"/>
		</clipPath>
	</defs>
	<g clip-path="url(#clip_7)">
		<path fill="#b25ce7" stroke="none" transform="matrix(0.9964 0 0 0.9964 46.8291 34.4246)" d="M3.77953 0.283465L3.77953 1.32283C4.53543 0.850394 5.10236 0.472441 5.48031 0.283465C5.85827 0.0944882 6.23622 0 6.61417 0C7.1811 0 7.74803 0.188976 8.22047 0.661417C8.59842 0.944882 8.7874 1.22835 8.7874 1.51181C8.7874 1.79528 8.69291 1.98425 8.50394 2.17323C8.31496 2.3622 8.12598 2.45669 7.93701 2.45669C7.74803 2.45669 7.46457 2.3622 7.27559 2.17323C7.08661 1.98425 6.80315 1.70079 6.61417 1.70079C6.33071 1.70079 6.04724 1.88976 5.5748 2.17323C5.10236 2.45669 4.53543 2.92913 3.77953 3.49606L3.77953 6.04724L6.23622 6.04724C6.61417 6.04724 6.89764 6.14173 7.08661 6.33071C7.27559 6.51968 7.37008 6.70866 7.37008 6.99213C7.37008 7.27559 7.27559 7.46457 7.08661 7.55906C6.89764 7.74803 6.61417 7.74803 6.23622 7.74803L1.13386 7.74803C0.755905 7.74803 0.472441 7.65354 0.283465 7.55906C0.0944882 7.37008 0 7.1811 0 6.89764C0 6.61417 0.0944882 6.4252 0.283465 6.33071C0.472441 6.14173 0.755905 6.04724 1.13386 6.04724L2.17323 6.04724L2.17323 1.88976L1.51181 1.88976C1.13386 1.88976 0.850394 1.79528 0.661417 1.6063C0.472441 1.41732 0.377953 1.22835 0.377953 0.944882C0.377953 0.661417 0.472441 0.472441 0.661417 0.377953C0.850394 0.188976 1.13386 0.188976 1.51181 0.188976L3.77953 0.188976L3.77953 0.283465Z"/>
	</g>
	<defs>
		<clipPath id="clip_8">
			<rect x="-1055.056" y="-2851.3535" width="1434.816" height="4642.2275" clip-rule="evenodd"/>
		</clipPath>
	</defs>
	<g clip-path="url(#clip_8)">
		<path fill="#b25ce7" stroke="none" transform="matrix(0.9964 0 0 0.9964 57.9387 31.2236)" d="M5.38583 3.02362L5.38583 3.59055C4.44094 3.59055 3.77953 3.87402 3.2126 4.44094C2.64567 5.00787 2.3622 5.5748 2.3622 6.33071C2.3622 6.99213 2.64567 7.55906 3.11811 8.0315C3.59055 8.50394 4.15748 8.7874 4.8189 8.7874C4.91339 8.7874 5.10236 8.69291 5.38583 8.69291L5.38583 8.7874L6.14173 8.7874C6.4252 8.7874 6.70866 8.69291 6.80315 8.59842C6.89764 8.50394 6.99213 8.31496 6.99213 8.12598C6.99213 7.84252 6.89764 7.65354 6.61417 7.55906L6.61417 3.02362C6.61417 2.3622 6.4252 1.79528 6.14173 1.32283C5.85827 0.850394 5.48032 0.472441 5.00787 0.283465Q4.29921 0 3.59055 0C2.45669 0 1.6063 0.472441 0.944882 1.41732C0.283465 2.3622 0 3.49606 0 4.8189L0 7.55906C0 8.40945 0.0944882 9.25984 0.472441 10.1102C0.850394 10.9606 1.22835 11.5276 1.88976 12C2.3622 12.2835 2.92913 12.4724 3.68504 12.4724Q5.10236 12.4724 5.95276 11.9055C6.33071 11.622 6.51968 11.3386 6.51968 11.0551C6.51968 10.8661 6.4252 10.6772 6.33071 10.5827C6.23622 10.4882 6.04724 10.3937 5.85827 10.3937C5.66929 10.3937 5.48032 10.4882 5.38583 10.6772C5.29134 10.8661 5.00787 10.9606 4.72441 11.0551C4.44094 11.1496 4.15748 11.1496 3.77953 11.1496C3.11811 11.1496 2.55118 10.8661 2.17323 10.3937C1.6063 9.63779 1.32283 8.69291 1.32283 7.37008L1.32283 4.8189C1.32283 4.15748 1.51181 3.40157 1.79528 2.64567C1.88976 2.17323 2.17323 1.88976 2.55118 1.6063C2.92913 1.32283 3.30709 1.22835 3.68504 1.22835C4.15748 1.22835 4.62992 1.32283 4.91339 1.70079C5.19685 2.07874 5.38583 2.45669 5.38583 3.02362ZM4.06299 5.29134C4.34646 5.00787 4.8189 4.91339 5.38583 4.8189L5.38583 7.46457L5.00787 7.46457C4.53543 7.46457 4.25197 7.27559 3.9685 7.08661C3.68504 6.80315 3.59055 6.51969 3.59055 6.23622C3.59055 5.85827 3.77953 5.5748 4.06299 5.29134Z" fill-rule="evenodd"/>
	</g>
	<defs>
		<clipPath id="clip_9">
			<rect x="-1055.056" y="-2851.3535" width="1434.816" height="4642.2275" clip-rule="evenodd"/>
		</clipPath>
	</defs>
	<g clip-path="url(#clip_9)">
		<path fill="#b25ce7" stroke="none" transform="matrix(0.9964 0 0 0.9964 67.3533 34.613)" d="M8.40945 0.0944882L8.40945 5.95276C8.7874 5.95276 9.07087 6.04724 9.16535 6.23622C9.25984 6.4252 9.44882 6.61417 9.44882 6.89764C9.44882 7.1811 9.35433 7.37008 9.16535 7.46457C8.97638 7.65354 8.69291 7.65354 8.31496 7.65354L6.70866 7.65354L6.70866 7.1811C6.23622 7.37008 5.76378 7.55906 5.29134 7.65354C4.8189 7.74803 4.44095 7.84252 4.06299 7.84252C3.49606 7.84252 3.02362 7.74803 2.64567 7.46457C2.26772 7.27559 1.88976 6.89764 1.70079 6.51969C1.51181 6.23622 1.41732 5.85827 1.41732 5.38583L1.41732 1.70079L1.13386 1.70079C0.755906 1.70079 0.472441 1.6063 0.283465 1.41732C0.0944882 1.22835 0 1.03937 0 0.755906C0 0.472441 0.0944882 0.283465 0.283465 0.188976C0.472441 0 0.755906 0 1.13386 0L3.11811 0L3.11811 5.10236C3.11811 5.48032 3.2126 5.76378 3.40158 5.85827C3.59055 6.04724 3.87402 6.14173 4.15748 6.14173C4.53543 6.14173 4.91339 6.04724 5.29134 5.95276C5.66929 5.85827 6.14173 5.5748 6.80315 5.19685L6.80315 1.70079L6.14173 1.70079C5.76378 1.70079 5.48031 1.6063 5.29134 1.41732C5.10236 1.22835 5.00787 1.03937 5.00787 0.755906C5.00787 0.472441 5.10236 0.283465 5.29134 0.188976C5.48031 0 5.76378 0 6.14173 0L8.40945 0L8.40945 0.0944882Z"/>
	</g>
	<defs>
		<clipPath id="clip_10">
			<rect x="-1055.056" y="-2851.3535" width="1434.816" height="4642.2275" clip-rule="evenodd"/>
		</clipPath>
	</defs>
	<g clip-path="url(#clip_10)">
		<path fill="#b25ce7" stroke="none" transform="matrix(0.9964 0 0 0.9964 78.8394 34.5188)" d="M5.76378 2.17323C5.48032 1.98425 5.19685 1.88976 4.91339 1.79528C4.62992 1.70079 4.25197 1.70079 3.9685 1.70079C3.30709 1.70079 2.74016 1.79528 2.3622 1.98425C2.17323 2.07874 2.07874 2.17323 2.07874 2.26772C2.07874 2.3622 2.17323 2.55118 2.45669 2.64567C2.64567 2.74016 3.02362 2.83465 3.68504 2.92913C4.8189 3.11811 5.5748 3.2126 6.04724 3.40157C6.61417 3.59055 7.08661 3.87402 7.37008 4.34646C7.65354 4.8189 7.84252 5.19685 7.84252 5.66929C7.84252 6.23622 7.55906 6.80315 6.99213 7.1811C6.23622 7.74803 5.19685 8.0315 3.9685 8.0315C3.49606 8.0315 3.02362 8.0315 2.64567 7.93701C2.26772 7.84252 1.88976 7.74803 1.51181 7.55906C1.41732 7.65354 1.32283 7.65354 1.22835 7.74803C1.13386 7.84252 1.03937 7.84252 0.944882 7.84252C0.661417 7.84252 0.472441 7.74803 0.283465 7.55906C0.0944882 7.37008 0 7.08661 0 6.70866L0 6.14173C0 5.76378 0.0944882 5.48032 0.283465 5.29134C0.472441 5.10236 0.661417 5.00787 0.944882 5.00787C1.13386 5.00787 1.32283 5.10236 1.41732 5.19685C1.51181 5.29134 1.70079 5.48032 1.70079 5.76378C1.98425 5.95276 2.26772 6.14173 2.64567 6.23622C3.02362 6.33071 3.40157 6.4252 3.87402 6.4252C4.62992 6.4252 5.29134 6.33071 5.66929 6.04724C5.85827 5.95276 5.95276 5.76378 5.95276 5.66929C5.95276 5.48032 5.76378 5.29134 5.48032 5.10236C5.19685 4.91339 4.53543 4.8189 3.68504 4.72441C2.3622 4.53543 1.41732 4.34646 0.944882 3.87402C0.472441 3.49606 0.283465 2.92913 0.283465 2.3622C0.283465 1.79528 0.566929 1.22835 1.03937 0.850394C1.70079 0.283465 2.64567 0 3.77953 0C4.15748 0 4.53543 0 4.91339 0.0944882C5.29134 0.188976 5.66929 0.283465 5.95276 0.472441C6.04724 0.377953 6.14173 0.377953 6.23622 0.283465C6.33071 0.283465 6.4252 0.188976 6.51969 0.188976C6.70866 0.188976 6.99213 0.283465 7.08661 0.472441C7.27559 0.661417 7.27559 0.944882 7.27559 1.32283L7.27559 1.70079C7.27559 2.07874 7.27559 2.3622 7.1811 2.45669C6.99213 2.74016 6.80315 2.83465 6.4252 2.83465C6.23622 2.83465 6.04724 2.74016 5.85827 2.64567C5.66929 2.55118 5.76378 2.3622 5.76378 2.17323Z"/>
	</g>
	<defs>
		<clipPath id="clip_11">
			<rect x="-1055.056" y="-2851.3535" width="1434.816" height="4642.2275" clip-rule="evenodd"/>
		</clipPath>
	</defs>
	<g clip-path="url(#clip_11)">
		<path fill="#b25ce7" stroke="none" transform="matrix(0.9964 0 0 0.9964 88.6309 34.4246)" d="M1.98425 4.91339L8.7874 4.91339L8.7874 4.06299C8.7874 3.59055 8.69291 3.02362 8.50394 2.64567C8.31496 2.07874 7.93701 1.51181 7.55905 1.13386C7.27559 0.850394 6.80315 0.661417 6.23622 0.377953C5.66929 0.0944882 5.00787 0 4.34646 0C3.2126 0 2.17323 0.377953 1.32283 1.13386C0.472441 1.88976 0 2.83465 0 4.06299C0 5.19685 0.377953 6.14173 1.22835 6.89764C2.07874 7.65354 3.2126 8.0315 4.53543 8.0315C5.29134 8.0315 6.14173 7.93701 6.99213 7.74803C7.84252 7.55906 8.40945 7.37008 8.59842 7.1811Q8.88189 6.89764 8.88189 6.61417C8.88189 6.4252 8.88189 6.23622 8.69291 6.04724Q8.40945 5.76378 8.12598 5.76378C8.0315 5.76378 7.74803 5.85827 7.27559 5.95276C6.23622 6.23622 5.38583 6.33071 4.72441 6.33071C3.9685 6.33071 3.40157 6.23622 2.92913 5.95276C2.45669 5.66929 2.17323 5.38583 1.98425 4.91339ZM6.04724 2.07874C6.51969 2.3622 6.80315 2.74016 7.08661 3.2126L1.98425 3.2126C2.26772 2.64567 2.64567 2.3622 3.02362 2.07874C3.49606 1.79528 3.9685 1.70079 4.53543 1.70079C5.10236 1.70079 5.66929 1.79528 6.04724 2.07874Z" fill-rule="evenodd"/>
	</g>
	<defs>
		<clipPath id="clip_12">
			<rect x="-1055.056" y="-2851.3535" width="1434.816" height="4642.2275" clip-rule="evenodd"/>
		</clipPath>
	</defs>
	<g clip-path="url(#clip_12)">
		<path fill="#b25ce7" stroke="none" transform="matrix(0.9964 0 0 0.9964 99.7402 34.4246)" d="M3.87402 0.283465L3.87402 1.32283C4.62992 0.850394 5.19685 0.472441 5.5748 0.283465C5.95276 0.0944882 6.33071 0 6.70866 0C7.27559 0 7.84252 0.188976 8.31496 0.661417C8.69291 0.944882 8.88189 1.22835 8.88189 1.51181C8.88189 1.79528 8.7874 1.98425 8.59842 2.17323C8.40945 2.3622 8.22047 2.45669 8.0315 2.45669C7.84252 2.45669 7.55905 2.3622 7.37008 2.17323C7.1811 1.98425 6.89764 1.88976 6.70866 1.88976C6.4252 1.88976 6.14173 2.07874 5.66929 2.3622C5.19685 2.64567 4.62992 3.11811 3.87402 3.68504L3.87402 6.23622L6.33071 6.23622C6.70866 6.23622 6.99213 6.33071 7.1811 6.51969C7.37008 6.70866 7.46457 6.89764 7.46457 7.1811C7.46457 7.46457 7.37008 7.65354 7.1811 7.74803C6.99213 7.93701 6.70866 7.93701 6.33071 7.93701L1.13386 7.93701C0.755905 7.93701 0.472441 7.84252 0.283465 7.74803C0.0944882 7.55906 0 7.37008 0 7.08661C0 6.80315 0.0944882 6.61417 0.283465 6.51969C0.472441 6.33071 0.755905 6.23622 1.13386 6.23622L2.17323 6.23622L2.17323 2.07874L1.51181 2.07874C1.13386 2.07874 0.850394 1.98425 0.661417 1.79528C0.472441 1.6063 0.377953 1.41732 0.377953 1.13386C0.377953 0.850394 0.472441 0.661417 0.661417 0.566929C0.850394 0.377953 1.13386 0.377953 1.51181 0.377953L3.87402 0.377953L3.87402 0.283465Z"/>
	</g>
	<defs>
		<clipPath id="clip_13">
			<rect x="-1055.056" y="-2851.3535" width="1434.816" height="4642.2275" clip-rule="evenodd"/>
		</clipPath>
	</defs>
	<g clip-path="url(#clip_13)">
		<path fill="#b25ce7" stroke="none" transform="matrix(0.9964 0 0 0.9964 121.3 30.188)" d="M7.27559 1.51181L1.79528 13.2283C1.70079 13.5118 1.51181 13.7008 1.41732 13.7953C1.22835 13.8898 1.13386 13.9843 0.850394 13.9843C0.661417 13.9843 0.377953 13.8898 0.283465 13.7008C0.0944882 13.5118 0 13.3228 0 13.1339C0 12.9449 0.0944882 12.7559 0.188976 12.4724L5.66929 0.755906C5.76378 0.472441 5.95276 0.283465 6.04724 0.188976C6.23622 0.0944882 6.33071 0 6.61417 0C6.80315 0 7.08661 0.0944882 7.1811 0.283465C7.27559 0.472441 7.46457 0.661417 7.46457 0.850394C7.55905 0.944882 7.46457 1.22835 7.27559 1.51181Z"/>
	</g>
	<defs>
		<clipPath id="clip_14">
			<rect x="-1055.056" y="-2851.3535" width="1434.816" height="4642.2275" clip-rule="evenodd"/>
		</clipPath>
	</defs>
	<g clip-path="url(#clip_14)">
		<path fill="#b25ce7" stroke="none" transform="matrix(0.9964 0 0 0.9964 131.468 34.5188)" d="M6.89764 0.472441C7.08661 0.283465 7.27559 0.188976 7.55905 0.188976C7.84252 0.188976 8.0315 0.283465 8.12598 0.472441C8.31496 0.661417 8.40945 0.944882 8.40945 1.32283L8.40945 2.45669C8.40945 2.83465 8.31496 3.11811 8.12598 3.30709C7.93701 3.49606 7.74803 3.59055 7.46457 3.59055C7.27559 3.59055 6.99213 3.49606 6.89764 3.40157C6.80315 3.30709 6.70866 3.11811 6.61417 2.83465C6.51968 2.55118 6.4252 2.26772 6.14173 2.17323C5.66929 1.88976 5.10236 1.79528 4.44094 1.79528C3.68504 1.79528 3.02362 1.98425 2.55118 2.45669C2.07874 2.92913 1.79528 3.49606 1.79528 4.25197C1.79528 4.91339 1.98425 5.48032 2.45669 5.85827C2.92913 6.23622 3.68504 6.4252 4.8189 6.4252C5.5748 6.4252 6.14173 6.33071 6.51968 6.23622C6.80315 6.14173 6.99213 5.95276 7.27559 5.76378C7.55905 5.5748 7.74803 5.48032 7.93701 5.48032C8.12598 5.48032 8.40945 5.5748 8.50394 5.76378C8.59842 5.95276 8.7874 6.14173 8.7874 6.33071C8.7874 6.70866 8.50394 7.08661 8.0315 7.37008C7.27559 7.84252 6.14173 8.12598 4.62992 8.12598C3.30709 8.12598 2.26772 7.84252 1.51181 7.27559C0.472441 6.51969 0 5.5748 0 4.25197C0 3.02362 0.377953 2.07874 1.22835 1.22835C2.07874 0.472441 3.11811 0 4.34646 0C4.8189 0 5.29134 0 5.66929 0.0944882C6.04724 0.188976 6.51968 0.283465 6.89764 0.472441Z"/>
	</g>
	<defs>
		<clipPath id="clip_15">
			<rect x="-1055.056" y="-2851.3535" width="1434.816" height="4642.2275" clip-rule="evenodd"/>
		</clipPath>
	</defs>
	<g clip-path="url(#clip_15)">
		<path fill="#b25ce7" stroke="none" transform="matrix(0.9964 0 0 0.9964 15.572 50.9006)" d="M4.44094 1.41732C4.8189 1.51181 5.19685 1.6063 5.5748 1.79528C5.66929 1.70079 5.76378 1.70079 5.85827 1.70079C5.95276 1.70079 6.04724 1.70079 6.14173 1.70079C6.4252 1.70079 6.61417 1.79528 6.80315 1.98425C6.99213 2.17323 6.99213 2.45669 6.99213 2.83465L6.99213 3.40157C6.99213 3.77953 6.89764 4.06299 6.80315 4.25197C6.61417 4.44095 6.4252 4.53543 6.23622 4.53543C6.04724 4.53543 5.85827 4.44095 5.66929 4.34646C5.38583 4.06299 5.29134 3.87402 5.29134 3.59055C4.8189 3.2126 4.34646 3.11811 3.77953 3.11811C3.11811 3.11811 2.74016 3.2126 2.3622 3.49606C2.07874 3.68504 1.88976 3.9685 1.88976 4.25197C1.88976 4.44095 1.98425 4.62992 2.17323 4.8189C2.3622 5.00787 2.74016 5.10236 3.30709 5.19685L4.44094 5.48032C5.38583 5.66929 6.04724 5.95276 6.51968 6.33071C7.08661 6.80315 7.37008 7.46457 7.37008 8.31496C7.37008 9.07087 7.08661 9.6378 6.61417 10.2047C6.14173 10.7717 5.38583 11.1496 4.53543 11.3386L4.53543 12.7559C4.53543 13.1339 4.44094 13.4173 4.25197 13.6063C4.06299 13.7953 3.87402 13.8898 3.59055 13.8898C3.30709 13.8898 3.11811 13.7953 3.02362 13.6063C2.83465 13.4173 2.83465 13.1339 2.83465 12.7559L2.83465 11.3386C2.3622 11.2441 1.98425 11.0551 1.51181 10.8661C1.22835 11.0551 1.03937 11.1496 0.850394 11.1496C0.566929 11.1496 0.377953 11.0551 0.188976 10.8661C0 10.6772 0 10.3937 0 10.0157L0 8.97638C0 8.59843 0.0944882 8.31496 0.188976 8.12598C0.377953 7.93701 0.566929 7.84252 0.850394 7.84252C1.03937 7.84252 1.22835 7.93701 1.32283 8.0315C1.41732 8.12598 1.6063 8.31496 1.6063 8.50394C1.6063 8.69291 1.79528 8.88189 1.88976 8.97638C2.07874 9.16535 2.26772 9.25984 2.64567 9.44882C3.02362 9.54331 3.30709 9.6378 3.68504 9.6378C4.34646 9.6378 4.8189 9.44882 5.29134 9.16535C5.5748 8.97638 5.66929 8.69291 5.66929 8.31496C5.66929 8.0315 5.5748 7.84252 5.38583 7.65354C5.19685 7.46457 4.8189 7.37008 4.15748 7.1811L2.83465 6.89764C1.88976 6.70866 1.22835 6.4252 0.850394 5.95276C0.472441 5.48032 0.188976 4.91339 0.188976 4.25197C0.188976 3.59055 0.377953 3.02362 0.850394 2.55118C1.32283 2.07874 1.88976 1.70079 2.64567 1.6063L2.64567 1.13386C2.64567 0.755906 2.74016 0.472441 2.83465 0.283465C3.02362 0.0944882 3.2126 0 3.49606 0C3.77953 0 3.9685 0.0944882 4.06299 0.283465C4.25197 0.472441 4.34646 0.755906 4.34646 1.13386L4.34646 1.41732L4.44094 1.41732Z"/>
	</g>
	<defs>
		<clipPath id="clip_16">
			<rect x="-1055.056" y="-2851.3535" width="1434.816" height="4642.2275" clip-rule="evenodd"/>
		</clipPath>
	</defs>
	<g clip-path="url(#clip_16)">
		<path fill="#b25ce7" stroke="none" transform="matrix(0.9964 0 0 0.9964 34.5898 65.8701)" d="M10.4882 1.70079L1.13386 1.70079C0.755906 1.70079 0.472441 1.6063 0.283465 1.51181C0.0944882 1.32283 0 1.13386 0 0.850394C0 0.566929 0.0944882 0.377953 0.283465 0.188976C0.472441 0 0.755906 0 1.13386 0L10.4882 0C10.8661 0 11.1496 0.0944882 11.3386 0.188976C11.5276 0.377953 11.622 0.566929 11.622 0.850394C11.622 1.13386 11.5276 1.32283 11.3386 1.41732C11.1496 1.70079 10.8661 1.70079 10.4882 1.70079Z"/>
	</g>
</svg>