<?xml version="1.0" encoding="utf-8" ?>
<svg xmlns="http://www.w3.org/2000/svg" xmlns:xlink="http://www.w3.org/1999/xlink" width="113" height="120">
	<defs>
		<clipPath id="clip_0">
			<rect x="-234.38794" y="-2846.9927" width="1432.368" height="4634.3071" clip-rule="evenodd"/>
		</clipPath>
	</defs>
	<g clip-path="url(#clip_0)">
		<path fill="#b25ce7" stroke="none" transform="matrix(0.9947 0 0 0.9947 0.759277 1.12817)" d="M96.5629 0C104.711 0 110.933 2.81482 111.23 2.96296C111.6 3.18519 111.822 3.55556 111.748 4C111.674 4.44444 111.304 4.74074 110.933 4.81482C110.859 4.81482 105.452 5.7037 101.378 12.1481C100.933 12.8889 100.489 13.8519 100.193 14.963C104.563 21.1111 104.785 29.1852 100.859 35.7037C97.4518 41.3333 91.3036 44.8889 84.7851 44.8889L65.674 72.0741L85.3777 103.556C86.6369 105.63 87.0073 108 86.4888 110.37C85.9703 112.741 84.5629 114.741 82.4888 116L81.8962 116.37C80.3407 117.333 78.711 117.778 77.0814 117.778C74.0444 117.778 71.0814 116.296 69.3777 113.556L53.8962 88.7407L32.6369 118.963C32.4888 119.185 32.1925 119.333 31.8962 119.333C31.7481 119.333 31.5999 119.259 31.4518 119.185L26.9332 116.444C26.4888 116.222 26.3407 115.704 26.5629 115.259L46.4147 76.963L30.1184 50.8889C19.8962 52.8889 9.37769 48.3704 3.82213 39.4815C-0.918608 31.8519 -1.28898 22.1481 2.93324 14.1481C3.08139 13.8519 3.45176 13.6296 3.74806 13.6296C4.04435 13.6296 4.41472 13.7778 4.56287 14.0741L14.9332 30.5926L28.4888 30.963L34.0444 18.5926L23.674 2.07407C23.5258 1.85185 23.5258 1.48148 23.674 1.18519C23.8221 0.888889 24.1925 0.666667 24.4888 0.666667C33.5258 0.296296 42.1184 4.88889 46.8592 12.5185C52.1925 21.1852 51.8221 32.3704 45.9703 40.6667L56.5629 57.4815L68.3407 34.8148C65.4518 29.1852 65.5258 22.1481 69.0814 16.2963C77.2295 2.81482 88.5629 0 96.5629 0ZM98.2666 14.8889C98.6369 13.4074 99.1555 12.1481 99.8221 11.1111C102.563 6.81482 105.822 4.74074 107.97 3.77778C105.526 2.96296 101.304 1.85185 96.4888 1.85185C85.5258 1.85185 76.7851 7.03704 70.5629 17.2593C65.674 25.2593 68.1184 35.6296 76.0443 40.4444C78.6369 42 81.5999 42.6667 84.6369 42.6667C90.5629 42.6667 96.1184 39.6296 99.2295 34.5185C102.859 28.5185 102.563 21.1852 98.4147 15.6296C98.2666 15.4074 98.1925 15.1852 98.2666 14.8889ZM30.4888 48.8889C30.8592 48.8148 31.2295 49.037 31.4518 49.3333L47.4518 74.963L55.5258 59.4815L44.0444 41.1852C43.8962 40.8889 43.8962 40.4444 44.1184 40.1481C49.8962 32.4444 50.3406 21.7778 45.2295 13.6296C41.0814 6.96296 33.8962 2.88889 26.1184 2.59259L35.8221 18.1481C35.9703 18.4444 36.0444 18.7407 35.8962 19.037L29.8962 32.3704C29.7481 32.6667 29.3777 32.8889 29.0073 32.8889L14.3407 32.4444C14.0444 32.4444 13.7481 32.2963 13.5999 32L3.89621 16.4444C0.785095 23.5556 1.30361 31.8519 5.45176 38.4444C10.711 46.8148 20.7851 51.037 30.4888 48.8889ZM78.1925 51.037C75.674 50.8148 73.3777 50 71.1555 48.7407C69.0073 47.4074 67.2295 45.7037 65.8962 43.6296L69.4518 36.8148C70.8592 38.963 72.7851 40.8148 75.1555 42.2963C77.4518 43.7037 79.9703 44.5185 82.6369 44.8148L78.1925 51.037ZM53.2295 86.5926L63.7481 71.5556L76.9332 52.8148C74.5629 52.4444 72.2666 51.6296 70.1925 50.3704C68.1184 49.037 66.3407 47.4074 64.9332 45.4815L28.6369 115.407L31.674 117.259L53.2295 86.5926ZM83.7481 104.593C84.7851 106.222 85.0814 108.148 84.6369 110C84.1925 111.852 83.0814 113.481 81.4518 114.444L80.8592 114.815C77.5258 116.889 73.0814 115.926 70.9332 112.519L55.0814 87.1111L64.4888 73.7037L83.7481 104.593Z" fill-rule="evenodd"/>
	</g>
	<defs>
		<clipPath id="clip_1">
			<rect x="-234.38794" y="-2846.9927" width="1432.368" height="4634.3071" clip-rule="evenodd"/>
		</clipPath>
	</defs>
	<g clip-path="url(#clip_1)">
		<path fill="#b25ce7" stroke="none" transform="matrix(0.9947 0 0 0.9947 74.0562 7.89722)" d="M21.5419 0.0094856C21.3197 0.0835597 -2.45807 4.97245 0.208597 23.9354C0.282671 24.3799 0.653041 24.7502 1.09749 24.7502C1.17156 24.7502 1.17156 24.7502 1.24563 24.7502C1.76415 24.6762 2.13452 24.2317 2.06045 23.7132C-0.309921 6.45393 21.0234 2.00949 21.9123 1.86134C22.4308 1.78726 22.7271 1.26874 22.653 0.750226C22.5049 0.305782 22.0604 -0.0645885 21.5419 0.0094856Z"/>
	</g>
</svg>
