<?xml version="1.0" encoding="utf-8" ?>
<svg xmlns="http://www.w3.org/2000/svg" xmlns:xlink="http://www.w3.org/1999/xlink" width="126" height="120">
	<defs>
		<clipPath id="clip_0">
			<rect x="-645.328" y="-2843.5569" width="1430.208" height="4627.3188" clip-rule="evenodd"/>
		</clipPath>
	</defs>
	<g clip-path="url(#clip_0)">
		<path fill="#b25ce7" stroke="none" transform="matrix(0.9932 0 0 0.9932 5.19385 4.38354)" d="M6.87805 3.43902C6.87805 5.34146 5.34146 6.87805 3.43902 6.87805C1.53659 6.87805 0 5.34146 0 3.43902C0 1.53659 1.53659 0 3.43902 0C5.34146 0 6.87805 1.53659 6.87805 3.43902ZM5.41463 3.43902C5.41463 2.34146 4.53659 1.46341 3.43902 1.46341C2.34146 1.46341 1.46341 2.34146 1.46341 3.43902C1.46341 4.53659 2.34146 5.41463 3.43902 5.41463C4.53659 5.41463 5.41463 4.53659 5.41463 3.43902Z" fill-rule="evenodd"/>
	</g>
	<defs>
		<clipPath id="clip_1">
			<rect x="-645.328" y="-2843.5569" width="1430.208" height="4627.3188" clip-rule="evenodd"/>
		</clipPath>
	</defs>
	<g clip-path="url(#clip_1)">
		<path fill="#b25ce7" stroke="none" transform="matrix(0.9932 0 0 0.9932 13.4058 4.38354)" d="M6.87805 3.43902C6.87805 5.34146 5.34146 6.87805 3.43902 6.87805C1.53659 6.87805 0 5.34146 0 3.43902C0 1.53659 1.53659 0 3.43902 0C5.34146 0 6.87805 1.53659 6.87805 3.43902ZM5.41463 3.43902C5.41463 2.34146 4.53659 1.46341 3.43902 1.46341C2.34146 1.46341 1.46341 2.34146 1.46341 3.43902C1.46341 4.53659 2.34146 5.41463 3.43902 5.41463C4.53659 5.41463 5.41463 4.53659 5.41463 3.43902Z" fill-rule="evenodd"/>
	</g>
	<defs>
		<clipPath id="clip_2">
			<rect x="-645.328" y="-2843.5569" width="1430.208" height="4627.3188" clip-rule="evenodd"/>
		</clipPath>
	</defs>
	<g clip-path="url(#clip_2)">
		<path fill="#b25ce7" stroke="none" transform="matrix(0.9932 0 0 0.9932 21.6179 4.38354)" d="M6.87805 3.43902C6.87805 5.34146 5.34146 6.87805 3.43902 6.87805C1.53659 6.87805 0 5.34146 0 3.43902C0 1.53659 1.53659 0 3.43902 0C5.34146 0 6.87805 1.53659 6.87805 3.43902ZM5.41463 3.43902C5.41463 2.34146 4.53659 1.46341 3.43902 1.46341C2.34146 1.46341 1.46341 2.34146 1.46341 3.43902C1.46341 4.53659 2.34146 5.41463 3.43902 5.41463C4.53659 5.41463 5.41463 4.53659 5.41463 3.43902Z" fill-rule="evenodd"/>
	</g>
	<defs>
		<clipPath id="clip_3">
			<rect x="-645.328" y="-2843.5569" width="1430.208" height="4627.3188" clip-rule="evenodd"/>
		</clipPath>
	</defs>
	<g clip-path="url(#clip_3)">
		<path fill="#b25ce7" stroke="none" transform="matrix(0.9932 0 0 0.9932 11.2256 99.8035)" d="M27.8049 0L0.731707 0C0.292683 0 0 0.292683 0 0.731707C0 1.17073 0.292683 1.46341 0.731707 1.46341L27.8049 1.46341C28.2439 1.46341 28.5366 1.17073 28.5366 0.731707C28.5366 0.292683 28.2439 0 27.8049 0Z"/>
	</g>
	<defs>
		<clipPath id="clip_4">
			<rect x="-645.328" y="-2843.5569" width="1430.208" height="4627.3188" clip-rule="evenodd"/>
		</clipPath>
	</defs>
	<g clip-path="url(#clip_4)">
		<path fill="#b25ce7" stroke="none" transform="matrix(0.9932 0 0 0.9932 11.2256 103.437)" d="M27.8049 0L0.731707 0C0.292683 0 0 0.292683 0 0.731707C0 1.17073 0.292683 1.46341 0.731707 1.46341L27.8049 1.46341C28.2439 1.46341 28.5366 1.17073 28.5366 0.731707C28.5366 0.292683 28.2439 0 27.8049 0Z"/>
	</g>
	<defs>
		<clipPath id="clip_5">
			<rect x="-645.328" y="-2843.5569" width="1430.208" height="4627.3188" clip-rule="evenodd"/>
		</clipPath>
	</defs>
	<g clip-path="url(#clip_5)">
		<path fill="#b25ce7" stroke="none" transform="matrix(0.9932 0 0 0.9932 11.2256 107.071)" d="M27.8049 0L0.731707 0C0.292683 0 0 0.292683 0 0.731707C0 1.17073 0.292683 1.46341 0.731707 1.46341L27.8049 1.46341C28.2439 1.46341 28.5366 1.17073 28.5366 0.731707C28.5366 0.292683 28.2439 0 27.8049 0Z"/>
	</g>
	<defs>
		<clipPath id="clip_6">
			<rect x="-645.328" y="-2843.5569" width="1430.208" height="4627.3188" clip-rule="evenodd"/>
		</clipPath>
	</defs>
	<g clip-path="url(#clip_6)">
		<path fill="#b25ce7" stroke="none" transform="matrix(0.9932 0 0 0.9932 11.2256 110.705)" d="M27.8049 0L0.731707 0C0.292683 0 0 0.292683 0 0.731707C0 1.17073 0.292683 1.46341 0.731707 1.46341L27.8049 1.46341C28.2439 1.46341 28.5366 1.17073 28.5366 0.731707C28.5366 0.292683 28.2439 0 27.8049 0Z"/>
	</g>
	<defs>
		<clipPath id="clip_7">
			<rect x="-645.328" y="-2843.5569" width="1430.208" height="4627.3188" clip-rule="evenodd"/>
		</clipPath>
	</defs>
	<g clip-path="url(#clip_7)">
		<path fill="#b25ce7" stroke="none" transform="matrix(0.9932 0 0 0.9932 49.0159 99.8035)" d="M27.8049 0L0.731707 0C0.292683 0 0 0.292683 0 0.731707C0 1.17073 0.292683 1.46341 0.731707 1.46341L27.8049 1.46341C28.2439 1.46341 28.5366 1.17073 28.5366 0.731707C28.5366 0.292683 28.2439 0 27.8049 0Z"/>
	</g>
	<defs>
		<clipPath id="clip_8">
			<rect x="-645.328" y="-2843.5569" width="1430.208" height="4627.3188" clip-rule="evenodd"/>
		</clipPath>
	</defs>
	<g clip-path="url(#clip_8)">
		<path fill="#b25ce7" stroke="none" transform="matrix(0.9932 0 0 0.9932 49.0159 103.437)" d="M27.8049 0L0.731707 0C0.292683 0 0 0.292683 0 0.731707C0 1.17073 0.292683 1.46341 0.731707 1.46341L27.8049 1.46341C28.2439 1.46341 28.5366 1.17073 28.5366 0.731707C28.5366 0.292683 28.2439 0 27.8049 0Z"/>
	</g>
	<defs>
		<clipPath id="clip_9">
			<rect x="-645.328" y="-2843.5569" width="1430.208" height="4627.3188" clip-rule="evenodd"/>
		</clipPath>
	</defs>
	<g clip-path="url(#clip_9)">
		<path fill="#b25ce7" stroke="none" transform="matrix(0.9932 0 0 0.9932 49.0159 107.071)" d="M27.8049 0L0.731707 0C0.292683 0 0 0.292683 0 0.731707C0 1.17073 0.292683 1.46341 0.731707 1.46341L27.8049 1.46341C28.2439 1.46341 28.5366 1.17073 28.5366 0.731707C28.5366 0.292683 28.2439 0 27.8049 0Z"/>
	</g>
	<defs>
		<clipPath id="clip_10">
			<rect x="-645.328" y="-2843.5569" width="1430.208" height="4627.3188" clip-rule="evenodd"/>
		</clipPath>
	</defs>
	<g clip-path="url(#clip_10)">
		<path fill="#b25ce7" stroke="none" transform="matrix(0.9932 0 0 0.9932 49.0159 110.705)" d="M27.8049 0L0.731707 0C0.292683 0 0 0.292683 0 0.731707C0 1.17073 0.292683 1.46341 0.731707 1.46341L27.8049 1.46341C28.2439 1.46341 28.5366 1.17073 28.5366 0.731707C28.5366 0.292683 28.2439 0 27.8049 0Z"/>
	</g>
	<defs>
		<clipPath id="clip_11">
			<rect x="-645.328" y="-2843.5569" width="1430.208" height="4627.3188" clip-rule="evenodd"/>
		</clipPath>
	</defs>
	<g clip-path="url(#clip_11)">
		<path fill="#b25ce7" stroke="none" transform="matrix(0.9932 0 0 0.9932 86.0789 99.8035)" d="M27.8049 0L0.731707 0C0.292683 0 0 0.292683 0 0.731707C0 1.17073 0.292683 1.46341 0.731707 1.46341L27.8049 1.46341C28.2439 1.46341 28.5366 1.17073 28.5366 0.731707C28.5366 0.292683 28.2439 0 27.8049 0Z"/>
	</g>
	<defs>
		<clipPath id="clip_12">
			<rect x="-645.328" y="-2843.5569" width="1430.208" height="4627.3188" clip-rule="evenodd"/>
		</clipPath>
	</defs>
	<g clip-path="url(#clip_12)">
		<path fill="#b25ce7" stroke="none" transform="matrix(0.9932 0 0 0.9932 86.0789 103.437)" d="M27.8049 0L0.731707 0C0.292683 0 0 0.292683 0 0.731707C0 1.17073 0.292683 1.46341 0.731707 1.46341L27.8049 1.46341C28.2439 1.46341 28.5366 1.17073 28.5366 0.731707C28.5366 0.292683 28.2439 0 27.8049 0Z"/>
	</g>
	<defs>
		<clipPath id="clip_13">
			<rect x="-645.328" y="-2843.5569" width="1430.208" height="4627.3188" clip-rule="evenodd"/>
		</clipPath>
	</defs>
	<g clip-path="url(#clip_13)">
		<path fill="#b25ce7" stroke="none" transform="matrix(0.9932 0 0 0.9932 86.0789 107.071)" d="M27.8049 0L0.731707 0C0.292683 0 0 0.292683 0 0.731707C0 1.17073 0.292683 1.46341 0.731707 1.46341L27.8049 1.46341C28.2439 1.46341 28.5366 1.17073 28.5366 0.731707C28.5366 0.292683 28.2439 0 27.8049 0Z"/>
	</g>
	<defs>
		<clipPath id="clip_14">
			<rect x="-645.328" y="-2843.5569" width="1430.208" height="4627.3188" clip-rule="evenodd"/>
		</clipPath>
	</defs>
	<g clip-path="url(#clip_14)">
		<path fill="#b25ce7" stroke="none" transform="matrix(0.9932 0 0 0.9932 86.0789 110.705)" d="M27.8049 0L0.731707 0C0.292683 0 0 0.292683 0 0.731707C0 1.17073 0.292683 1.46341 0.731707 1.46341L27.8049 1.46341C28.2439 1.46341 28.5366 1.17073 28.5366 0.731707C28.5366 0.292683 28.2439 0 27.8049 0Z"/>
	</g>
	<defs>
		<clipPath id="clip_15">
			<rect x="-645.328" y="-2843.5569" width="1430.208" height="4627.3188" clip-rule="evenodd"/>
		</clipPath>
	</defs>
	<g clip-path="url(#clip_15)">
		<path fill="#b25ce7" stroke="none" transform="matrix(0.9932 0 0 0.9932 0.760742 0.968018)" d="M124.61 43.6098L124.61 0L0.219512 0L0.219512 43.3902C0.219512 43.5366 0 43.6829 0 43.9024C0 44.122 0.219512 44.3415 0.219512 44.4146L0.219512 120L124.61 120L124.61 44.1951C124.61 44.122 124.683 43.9756 124.683 43.9024C124.683 43.8293 124.61 43.6829 124.61 43.6098ZM1.68293 12.439L123.146 12.439L123.146 1.46341L1.68293 1.46341L1.68293 12.439ZM123.146 43.1707L77.122 43.1707C76.9756 35.2683 70.5366 28.8293 62.561 28.8293C54.5854 28.8293 48.1463 35.2683 48 43.1707L1.68293 43.1707L1.68293 13.9024L123.146 13.9024L123.146 43.1707ZM67.5366 40.3171C67.5366 42.0732 66.5854 43.6829 65.1951 44.561C68.7805 45.439 71.6341 48.2195 72.6585 51.8049C74.561 49.5366 75.6585 46.6098 75.6585 43.4634C75.6585 36.2195 69.8049 30.3659 62.561 30.3659C55.3171 30.3659 49.4634 36.2195 49.4634 43.4634C49.4634 46.6098 50.561 49.5366 52.4634 51.8049C53.4878 48.2195 56.3415 45.5122 59.9268 44.561C58.5366 43.6829 57.5854 42.1463 57.5854 40.3171C57.5854 37.6098 59.7805 35.3415 62.561 35.3415C65.2683 35.3415 67.5366 37.5366 67.5366 40.3171ZM59.0488 40.3171C59.0488 38.3415 60.6585 36.8049 62.561 36.8049C64.5366 36.8049 66.0732 38.4146 66.0732 40.3171C66.0732 42.2195 64.4634 43.8293 62.561 43.8293C60.6585 43.8293 59.0488 42.2195 59.0488 40.3171ZM123.146 118.537L1.68293 118.537L1.68293 44.6341L48.0732 44.6341C48.6585 52.0976 54.9512 58.0244 62.561 58.0244C70.1707 58.0244 76.4634 52.0976 77.0488 44.6341L123.146 44.6341L123.146 118.537ZM71.4878 53.0488C70.6829 48.8049 66.8781 45.6585 62.561 45.6585C58.2439 45.6585 54.439 48.8049 53.6341 53.0488C55.9756 55.2439 59.122 56.561 62.561 56.561C66 56.561 69.1463 55.2439 71.4878 53.0488Z" fill-rule="evenodd"/>
	</g>
	<defs>
		<clipPath id="clip_16">
			<rect x="-645.328" y="-2843.5569" width="1430.208" height="4627.3188" clip-rule="evenodd"/>
		</clipPath>
	</defs>
	<g clip-path="url(#clip_16)">
		<path fill="#b25ce7" stroke="none" transform="matrix(0.9932 0 0 0.9932 10.4263 64.9204)" d="M29.2683 29.2683L0 29.2683L0 0L29.2683 0L29.2683 29.2683ZM27.8049 1.46341L1.46341 1.46341L1.46341 27.8049L27.8049 27.8049L27.8049 1.46341Z" fill-rule="evenodd"/>
	</g>
	<defs>
		<clipPath id="clip_17">
			<rect x="-645.328" y="-2843.5569" width="1430.208" height="4627.3188" clip-rule="evenodd"/>
		</clipPath>
	</defs>
	<g clip-path="url(#clip_17)">
		<path fill="#b25ce7" stroke="none" transform="matrix(0.9932 0 0 0.9932 48.2163 64.9204)" d="M29.2683 29.2683L0 29.2683L0 0L29.2683 0L29.2683 29.2683ZM27.8049 1.46341L1.46341 1.46341L1.46341 27.8049L27.8049 27.8049L27.8049 1.46341Z" fill-rule="evenodd"/>
	</g>
	<defs>
		<clipPath id="clip_18">
			<rect x="-645.328" y="-2843.5569" width="1430.208" height="4627.3188" clip-rule="evenodd"/>
		</clipPath>
	</defs>
	<g clip-path="url(#clip_18)">
		<path fill="#b25ce7" stroke="none" transform="matrix(0.9932 0 0 0.9932 85.2798 64.9204)" d="M0 0L29.2683 0L29.2683 29.2683L0 29.2683L0 0ZM1.46341 27.8049L27.8049 27.8049L27.8049 1.46341L1.46341 1.46341L1.46341 27.8049Z" fill-rule="evenodd"/>
	</g>
</svg>