<?xml version="1.0" encoding="utf-8" ?>
<svg xmlns="http://www.w3.org/2000/svg" xmlns:xlink="http://www.w3.org/1999/xlink" width="64" height="64">
	<defs>
		<clipPath id="clip_0">
			<rect x="-627" y="-4477" width="1440" height="4659" clip-rule="evenodd"/>
		</clipPath>
	</defs>
	<g clip-path="url(#clip_0)">
		<path fill="rgb(255,255,255)" stroke="none" transform="translate(0.750977 0.750977)" d="M31.25 62.5C14.02 62.5 0 48.48 0 31.25C0 14.02 14.02 0 31.25 0C48.48 0 62.5 14.02 62.5 31.25C62.5 48.48 48.48 62.5 31.25 62.5Z"/>
	</g>
	<defs>
		<clipPath id="clip_1">
			<rect x="-627" y="-4477" width="1440" height="4659" clip-rule="evenodd"/>
		</clipPath>
	</defs>
	<g clip-path="url(#clip_1)">
		<path fill="rgb(229,229,229)" stroke="none" d="M0 32C0 14.327 14.327 0 32 0C49.673 0 64 14.327 64 32C64 49.673 49.673 64 32 64C14.327 64 0 49.673 0 32ZM62.5 32C62.5 15.182 48.818 1.5 32 1.5C15.182 1.5 1.5 15.182 1.5 32C1.5 48.818 15.182 62.5 32 62.5C48.818 62.5 62.5 48.818 62.5 32Z" fill-rule="evenodd"/>
	</g>
	<defs>
		<clipPath id="clip_2">
			<rect x="-627" y="-4477" width="1440" height="4659" clip-rule="evenodd"/>
		</clipPath>
	</defs>
	<g clip-path="url(#clip_2)">
		<path fill="rgb(51,51,51)" stroke="none" transform="translate(16.9292 13.835)" d="M21.6629 36.331L16.8229 36.331L11.9789 36.331C11.9789 36.331 11.9929 33.457 11.9789 31.487C5.34989 32.915 3.49989 27.854 3.49989 27.854C2.28989 25.431 1.07689 24.221 1.07689 24.221C-1.34611 22.783 1.07689 23.011 1.07689 23.011C3.49989 23.011 4.70989 25.434 4.70989 25.434C6.83589 29.043 10.6179 28.462 11.9759 27.857C11.9759 26.647 12.5059 24.815 13.1859 24.224C7.89589 23.629 3.49289 20.591 3.49289 14.535C3.49289 8.479 4.70889 7.269 5.91989 6.056C5.67589 5.459 4.66089 3.251 5.95689 0C5.95689 0 8.33689 0 10.7599 3.633C11.9599 2.433 15.6039 2.423 16.8159 2.423C18.0239 2.423 21.6699 2.433 22.8699 3.633C25.2929 0 27.6789 0 27.6789 0C28.9749 3.251 27.9609 5.459 27.7159 6.056C28.9259 7.266 30.1389 8.479 30.1389 14.535C30.1389 20.591 25.7419 23.627 20.4499 24.224C21.1319 24.815 21.6599 26.899 21.6599 27.857L21.6629 36.331L21.6629 36.331Z"/>
	</g>
</svg>