<?xml version="1.0" encoding="utf-8" ?>
<svg xmlns="http://www.w3.org/2000/svg" xmlns:xlink="http://www.w3.org/1999/xlink" width="64" height="64">
	<defs>
		<clipPath id="clip_0">
			<rect x="-749" y="-4477" width="1440" height="4659" clip-rule="evenodd"/>
		</clipPath>
	</defs>
	<g clip-path="url(#clip_0)">
		<path fill="rgb(255,255,255)" stroke="none" transform="translate(0.737061 2.64551)" d="M30.303 60.6061C13.5952 60.6061 0 47.0109 0 30.303C0 13.5952 13.5952 0 30.303 0C47.0109 0 60.6061 13.5952 60.6061 30.303C60.6061 47.0109 47.0109 60.6061 30.303 60.6061Z"/>
	</g>
	<defs>
		<clipPath id="clip_1">
			<rect x="-749" y="-4477" width="1440" height="4659" clip-rule="evenodd"/>
		</clipPath>
	</defs>
	<g clip-path="url(#clip_1)">
		<path fill="rgb(229,229,229)" stroke="none" transform="translate(0.00976563 1.91797)" d="M0 31.0303C0 13.8919 13.8919 0 31.0303 0C48.1687 0 62.0606 13.8938 62.0606 31.0303C62.0606 48.1668 48.1687 62.0606 31.0303 62.0606C13.8919 62.0606 0 48.1668 0 31.0303ZM60.6061 31.0303C60.6061 14.7219 47.3387 1.45455 31.0303 1.45455C14.7219 1.45455 1.45455 14.7219 1.45455 31.0303C1.45455 47.3387 14.7219 60.6061 31.0303 60.6061C47.3387 60.6061 60.6061 47.3387 60.6061 31.0303Z" fill-rule="evenodd"/>
	</g>
	<defs>
		<clipPath id="clip_2">
			<rect x="-749" y="-4477" width="1440" height="4659" clip-rule="evenodd"/>
		</clipPath>
	</defs>
	<g clip-path="url(#clip_2)">
		<path fill="rgb(51,51,51)" stroke="none" transform="translate(14.9353 15.647)" d="M3.85745 7.17382C6.2623 7.17382 7.76145 5.5777 7.76145 3.58594C7.71685 1.54958 6.2623 0 3.90206 0C1.54182 0 0 1.54764 0 3.584C0 5.5777 1.49721 7.17188 3.81479 7.17188L3.85745 7.17188L3.85745 7.17382ZM32.1901 30.7665L32.1901 18.8645C32.1901 12.4878 28.7864 9.52048 24.2463 9.52048C20.5828 9.52048 18.9421 11.5355 18.0286 12.9493L18.0286 10.0073L11.1282 10.0073C11.2194 11.9564 11.1282 30.7665 11.1282 30.7665L18.0286 30.7665L18.0286 19.1728C18.0286 18.5542 18.0732 17.9336 18.2555 17.4914C18.7539 16.2521 19.8885 14.9682 21.7949 14.9682C24.2929 14.9682 25.2916 16.8708 25.2916 19.6616L25.2916 30.7685L32.1901 30.7665ZM7.30764 10.0073L7.30764 30.7665L0.409212 30.7665L0.409212 10.0073L7.30764 10.0073Z" fill-rule="evenodd"/>
	</g>
</svg>
