<?xml version="1.0" standalone="no"?>
<!DOCTYPE svg PUBLIC "-//W3C//DTD SVG 20010904//EN"
 "http://www.w3.org/TR/2001/REC-SVG-20010904/DTD/svg10.dtd">
<svg version="1.0" xmlns="http://www.w3.org/2000/svg"
 width="460.000000pt" height="460.000000pt" viewBox="0 0 460.000000 460.000000"
 preserveAspectRatio="xMidYMid meet">
<metadata>
Created by potrace 1.11, written by Peter Selinger 2001-2013
</metadata>
<g transform="translate(0.000000,460.000000) scale(0.100000,-0.100000)"
fill="#000000" stroke="none">
<path d="M2105 4524 c-118 -12 -272 -38 -364 -60 -741 -181 -1346 -714 -1605
-1415 -173 -470 -173 -1028 0 -1498 286 -775 976 -1327 1824 -1458 161 -25
519 -25 680 0 848 131 1538 683 1824 1458 173 470 173 1028 0 1498 -285 771
-978 1327 -1814 1456 -101 16 -458 28 -545 19z m-424 -1361 c219 -61 331 -178
346 -361 15 -169 -108 -349 -278 -409 -27 -10 -49 -20 -49 -23 0 -3 24 -11 54
-17 194 -41 332 -196 343 -386 18 -305 -204 -528 -552 -553 l-80 -6 -150 151
-150 151 146 0 c166 0 223 12 282 61 56 46 77 95 77 177 0 93 -33 147 -117
188 -56 28 -65 29 -225 32 l-168 4 0 -229 0 -228 -200 200 -200 200 0 538 0
538 423 -3 c393 -4 427 -6 498 -25z m1818 -447 l474 -474 -12 -82 c-51 -349
-262 -598 -596 -703 -129 -41 -211 -47 -606 -47 l-369 0 0 890 0 890 318 0
317 0 474 -474z"/>
<path d="M1160 2686 l0 -206 128 0 c137 0 177 7 227 41 55 38 79 84 83 160 6
93 -20 139 -97 177 -52 25 -67 27 -198 30 l-143 4 0 -206z"/>
<path d="M2790 2300 l0 -560 148 0 c229 0 338 35 447 145 111 111 157 236 158
430 0 175 -37 283 -135 390 -100 110 -240 155 -478 155 l-140 0 0 -560z"/>
</g>
</svg>
